<svg width="76" height="28" viewBox="0 0 76 28" fill="none" xmlns="http://www.w3.org/2000/svg">
<path d="M26.667 17.333H8.66699C7.56253 17.333 6.66717 18.2286 6.66699 19.333C6.66699 20.4376 7.56242 21.333 8.66699 21.333H26.667V28H8.66699C3.88052 28 0 24.1195 0 19.333C0.000175785 14.5467 3.88063 10.667 8.66699 10.667H26.667V17.333Z" fill="#4A90E2"/>
<path d="M67.333 0C72.1195 0 76 3.88052 76 8.66699C75.9998 13.4533 72.1194 17.333 67.333 17.333H30.667V10.667H67.333C68.4375 10.667 69.3328 9.77141 69.333 8.66699C69.333 7.56242 68.4376 6.66699 67.333 6.66699H30.667V0H67.333Z" fill="#4A90E2"/>
<path fill-rule="evenodd" clip-rule="evenodd" d="M32.8418 21.333C33.2247 21.333 33.5703 21.3675 33.8779 21.4365C34.1854 21.5056 34.4493 21.6195 34.6689 21.7764C34.8884 21.9333 35.0576 22.1343 35.1768 22.3789C35.296 22.6237 35.3555 22.9185 35.3555 23.2637C35.3555 23.634 35.2865 23.9452 35.1484 24.1963C35.0104 24.4471 34.8223 24.6508 34.584 24.8076C34.3517 24.9583 34.0785 25.0686 33.7646 25.1377C33.4508 25.2067 33.1181 25.2412 32.7666 25.2412H31.8535V28H30.667V21.333H32.8418ZM31.8535 24.2432H32.6816C32.8762 24.2432 33.0615 24.2302 33.2373 24.2051C33.413 24.1737 33.5699 24.1237 33.708 24.0547C33.8461 23.9794 33.9565 23.8785 34.0381 23.7529C34.1195 23.6274 34.1602 23.4643 34.1602 23.2637C34.1602 23.0692 34.1196 22.9122 34.0381 22.793C33.9565 22.6674 33.8461 22.57 33.708 22.501C33.5763 22.432 33.4227 22.388 33.2471 22.3691C33.0777 22.344 32.9017 22.3311 32.7197 22.3311H31.8535V24.2432Z" fill="#4A90E2"/>
<path fill-rule="evenodd" clip-rule="evenodd" d="M38.7295 21.333C39.0432 21.333 39.3477 21.3675 39.6426 21.4365C39.9375 21.4993 40.1979 21.6063 40.4238 21.7568C40.6561 21.9075 40.8414 22.1058 40.9795 22.3506C41.1175 22.5954 41.1865 22.8937 41.1865 23.2451C41.1865 23.7284 41.0486 24.1241 40.7725 24.4316C40.5025 24.7329 40.1319 24.9363 39.6611 25.043L41.4414 28H40.0098L38.4658 25.1748H37.5986V28H36.4131V21.333H38.7295ZM37.5986 24.2051H38.5693C38.7386 24.2051 38.9079 24.193 39.0771 24.168C39.2466 24.1429 39.3975 24.0954 39.5293 24.0264C39.6674 23.9573 39.7803 23.8599 39.8682 23.7344C39.956 23.6025 40 23.4362 40 23.2354C40 23.0534 39.9595 22.9059 39.8779 22.793C39.7964 22.6738 39.6928 22.5798 39.5674 22.5107C39.4418 22.4417 39.297 22.3943 39.1338 22.3691C38.977 22.3441 38.8234 22.3311 38.6729 22.3311H37.5986V24.2051Z" fill="#4A90E2"/>
<path fill-rule="evenodd" clip-rule="evenodd" d="M45.4092 21.333C45.9049 21.333 46.3621 21.4111 46.7803 21.5664C47.1983 21.7217 47.5596 21.9428 47.8643 22.2295C48.1688 22.5161 48.405 22.8654 48.5723 23.2773C48.7455 23.6835 48.832 24.1408 48.832 24.6484C48.832 25.1443 48.7455 25.5986 48.5723 26.0107C48.405 26.4169 48.1689 26.7697 47.8643 27.0684C47.5597 27.3609 47.1983 27.5906 46.7803 27.7578C46.3621 27.9191 45.905 28 45.4092 28C44.9195 28 44.4659 27.919 44.0479 27.7578C43.6358 27.5906 43.2772 27.3609 42.9727 27.0684C42.674 26.7697 42.4379 26.4169 42.2646 26.0107C42.0974 25.5986 42.0137 25.1443 42.0137 24.6484C42.0137 24.1408 42.0974 23.6835 42.2646 23.2773C42.4379 22.8654 42.6741 22.5161 42.9727 22.2295C43.2773 21.9428 43.6358 21.7217 44.0479 21.5664C44.4658 21.4112 44.9196 21.333 45.4092 21.333ZM45.418 22.3281C45.0897 22.3282 44.7911 22.3875 44.5225 22.5068C44.2597 22.6263 44.0329 22.791 43.8418 23C43.6507 23.209 43.5011 23.4538 43.3936 23.7344C43.292 24.015 43.2412 24.32 43.2412 24.6484C43.2412 24.9889 43.292 25.3031 43.3936 25.5898C43.5011 25.8705 43.6507 26.1152 43.8418 26.3242C44.0389 26.5332 44.2685 26.6979 44.5312 26.8174C44.7999 26.9308 45.0956 26.9872 45.418 26.9873C45.7406 26.9873 46.0368 26.9309 46.3057 26.8174C46.5744 26.6979 46.804 26.5332 46.9951 26.3242C47.1922 26.1152 47.3418 25.8705 47.4434 25.5898C47.5509 25.3031 47.6045 24.9889 47.6045 24.6484C47.6045 24.32 47.5508 24.015 47.4434 23.7344C47.3418 23.4539 47.1959 23.2089 47.0049 23C46.8137 22.7909 46.5833 22.6263 46.3145 22.5068C46.0457 22.3874 45.7465 22.3281 45.418 22.3281Z" fill="#4A90E2"/>
<path d="M53.4443 21.333C53.6473 21.333 53.8592 21.3547 54.0801 21.3965C54.3009 21.4323 54.5129 21.4917 54.7158 21.5752C54.9189 21.6529 55.1108 21.7516 55.29 21.8711C55.4691 21.9905 55.6217 22.1336 55.7471 22.3008L54.8867 22.9824C54.7195 22.7554 54.5012 22.5908 54.2324 22.4893C53.9638 22.3818 53.7011 22.3282 53.4443 22.3281C53.1158 22.3281 52.8166 22.3874 52.5479 22.5068C52.279 22.6263 52.0458 22.7909 51.8486 23C51.6576 23.209 51.5079 23.4537 51.4004 23.7344C51.2989 24.015 51.2481 24.32 51.248 24.6484C51.248 24.9949 51.2989 25.3119 51.4004 25.5986C51.5019 25.8854 51.6459 26.1337 51.8311 26.3428C52.0221 26.5457 52.2491 26.7039 52.5117 26.8174C52.7746 26.9309 53.0709 26.9873 53.3994 26.9873C53.7397 26.9873 54.041 26.9214 54.3037 26.79C54.5665 26.6527 54.7791 26.4739 54.9404 26.2529L55.8457 26.8887C55.5649 27.2411 55.2207 27.5158 54.8145 27.7129C54.4083 27.904 53.9332 28 53.3896 28C52.8941 28 52.4375 27.919 52.0195 27.7578C51.6075 27.5906 51.2518 27.3609 50.9531 27.0684C50.6544 26.7697 50.4212 26.417 50.2539 26.0107C50.0867 25.5986 50.0029 25.1442 50.0029 24.6484C50.003 24.1408 50.0895 23.6835 50.2627 23.2773C50.4418 22.8654 50.6838 22.5161 50.9883 22.2295C51.2989 21.9428 51.6639 21.7217 52.082 21.5664C52.5002 21.4111 52.9545 21.333 53.4443 21.333Z" fill="#4A90E2"/>
<path d="M61.2949 22.3691H58.0645V24.0645H61.125V25.0625H58.0645V26.9453H61.4639V28H56.8779V21.333H61.2949V22.3691Z" fill="#4A90E2"/>
<path d="M64.7246 21.333C65.047 21.3331 65.3728 21.3905 65.7012 21.5039C66.0355 21.6174 66.3255 21.7877 66.5703 22.0146L65.835 22.8213C65.7155 22.666 65.5452 22.5371 65.3242 22.4355C65.1092 22.3281 64.8909 22.2744 64.6699 22.2744C64.5387 22.2745 64.4076 22.2924 64.2764 22.3281C64.145 22.358 64.0255 22.4088 63.918 22.4805C63.8104 22.5462 63.7201 22.6355 63.6484 22.749C63.5828 22.8565 63.5508 22.9883 63.5508 23.1436C63.5508 23.2868 63.58 23.4093 63.6396 23.5107C63.6994 23.6123 63.7803 23.6988 63.8818 23.7705C63.9894 23.8422 64.1182 23.9052 64.2676 23.959C64.4167 24.0127 64.5808 24.0664 64.7598 24.1201C64.9629 24.1858 65.1726 24.2601 65.3877 24.3438C65.6086 24.4274 65.8082 24.5385 65.9873 24.6758C66.1725 24.8132 66.3221 24.9863 66.4355 25.1953C66.555 25.4043 66.6152 25.6641 66.6152 25.9746C66.6152 26.3151 66.5522 26.6142 66.4268 26.8711C66.3013 27.1219 66.1338 27.3308 65.9248 27.498C65.7158 27.6653 65.4711 27.7914 65.1904 27.875C64.9097 27.9586 64.6134 28 64.3027 28C63.8908 28 63.4878 27.9256 63.0938 27.7764C62.6995 27.6211 62.3769 27.3934 62.126 27.0947L62.9316 26.3428C63.0869 26.5578 63.294 26.7281 63.5508 26.8535C63.8134 26.9788 64.0706 27.041 64.3213 27.041C64.4526 27.041 64.5873 27.0259 64.7246 26.9961C64.8618 26.9602 64.9844 26.9037 65.0918 26.8262C65.2052 26.7485 65.2947 26.6525 65.3604 26.5391C65.4319 26.4197 65.4677 26.2736 65.4678 26.1006C65.4678 25.9335 65.4291 25.796 65.3516 25.6885C65.2739 25.575 65.1694 25.479 65.0381 25.4014C64.9068 25.3178 64.7513 25.2462 64.5723 25.1865L64.0068 24.998C63.8158 24.9383 63.6246 24.8668 63.4336 24.7832C63.2425 24.6996 63.0693 24.5885 62.9141 24.4512C62.7649 24.3139 62.6424 24.1471 62.5469 23.9502C62.4513 23.7471 62.4033 23.4959 62.4033 23.1973C62.4033 22.8748 62.4693 22.5972 62.6006 22.3643C62.738 22.1313 62.9139 21.9394 63.1289 21.79C63.3499 21.6347 63.5983 21.5219 63.873 21.4502C64.1538 21.3725 64.4379 21.333 64.7246 21.333Z" fill="#4A90E2"/>
<path d="M70.1299 21.333C70.4524 21.333 70.778 21.3904 71.1064 21.5039C71.441 21.6174 71.7307 21.7877 71.9756 22.0146L71.2412 22.8213C71.1217 22.666 70.9515 22.5371 70.7305 22.4355C70.5154 22.328 70.2972 22.2744 70.0762 22.2744C69.9448 22.2744 69.813 22.2923 69.6816 22.3281C69.5504 22.358 69.4307 22.4089 69.3232 22.4805C69.2159 22.5462 69.1263 22.6357 69.0547 22.749C68.989 22.8566 68.9561 22.9882 68.9561 23.1436C68.9561 23.2869 68.9862 23.4092 69.0459 23.5107C69.1056 23.6123 69.1865 23.6988 69.2881 23.7705C69.3955 23.8421 69.5236 23.9053 69.6729 23.959C69.8222 24.0127 69.9868 24.0664 70.166 24.1201C70.369 24.1858 70.578 24.2602 70.793 24.3438C71.014 24.4274 71.2143 24.5384 71.3936 24.6758C71.5787 24.8132 71.7283 24.9863 71.8418 25.1953C71.9612 25.4043 72.0205 25.6642 72.0205 25.9746C72.0205 26.3151 71.9584 26.6142 71.833 26.8711C71.7076 27.1219 71.54 27.3308 71.3311 27.498C71.122 27.6653 70.8765 27.7914 70.5957 27.875C70.3151 27.9585 70.0194 28 69.709 28C69.2968 28 68.8933 27.9257 68.499 27.7764C68.1048 27.6211 67.7821 27.3934 67.5312 27.0947L68.3379 26.3428C68.4932 26.5577 68.6993 26.7281 68.9561 26.8535C69.2188 26.9789 69.4758 27.041 69.7266 27.041C69.858 27.041 69.9925 27.0259 70.1299 26.9961C70.2672 26.9603 70.3896 26.9037 70.4971 26.8262C70.6106 26.7485 70.7009 26.6526 70.7666 26.5391C70.8381 26.4197 70.874 26.2735 70.874 26.1006C70.874 25.9333 70.8345 25.796 70.7568 25.6885C70.6792 25.575 70.5748 25.479 70.4434 25.4014C70.312 25.3178 70.1566 25.2462 69.9775 25.1865C69.7984 25.1268 69.6102 25.0637 69.4131 24.998C69.222 24.9383 69.0309 24.8668 68.8398 24.7832C68.6487 24.6996 68.4756 24.5886 68.3203 24.4512C68.1711 24.3139 68.0487 24.1471 67.9531 23.9502C67.8576 23.7471 67.8096 23.4959 67.8096 23.1973C67.8096 22.8748 67.8755 22.5972 68.0068 22.3643C68.1442 22.1313 68.3201 21.9394 68.5352 21.79C68.756 21.6349 69.0038 21.5219 69.2783 21.4502C69.559 21.3726 69.8432 21.333 70.1299 21.333Z" fill="#4A90E2"/>
<path d="M8.41602 1.03613H5.18652V2.73047H8.24707V3.72852H5.18652V5.6123H8.58594V6.66699H4V0H8.41602V1.03613Z" fill="#4A90E2"/>
<path fill-rule="evenodd" clip-rule="evenodd" d="M15.7344 6.66699H14.3789L13.7578 5.1416H10.8662L10.2637 6.66699H8.93652L11.8369 0H12.8633L15.7344 6.66699ZM11.2715 4.12402H13.3428L12.3164 1.41211L11.2715 4.12402Z" fill="#4A90E2"/>
<path d="M18.4932 0C18.8157 2.68437e-05 19.1413 0.0564532 19.4697 0.169922C19.8042 0.283401 20.094 0.453728 20.3389 0.680664L19.6045 1.4873C19.4851 1.33211 19.3145 1.20405 19.0938 1.10254C18.8788 0.995058 18.6604 0.940475 18.4395 0.94043C18.3081 0.94043 18.1763 0.958323 18.0449 0.994141C17.9136 1.02399 17.794 1.07489 17.6865 1.14648C17.579 1.2122 17.4897 1.30252 17.418 1.41602C17.3523 1.52343 17.3194 1.65448 17.3193 1.80957C17.3193 1.95294 17.3494 2.07618 17.4092 2.17773C17.4689 2.27908 17.549 2.36593 17.6504 2.4375C17.7579 2.50918 17.8868 2.57124 18.0361 2.625C18.1854 2.67873 18.3492 2.73338 18.5283 2.78711C18.7314 2.85282 18.9412 2.92711 19.1562 3.01074C19.3772 3.09437 19.5777 3.20542 19.7568 3.34277C19.9418 3.48011 20.0907 3.65342 20.2041 3.8623C20.3235 4.07137 20.3838 4.33101 20.3838 4.6416C20.3838 4.98209 20.3208 5.28122 20.1953 5.53809C20.0699 5.7888 19.9023 5.99787 19.6934 6.16504C19.4844 6.33217 19.2396 6.45742 18.959 6.54102C18.6784 6.6246 18.3827 6.66695 18.0723 6.66699C17.6601 6.66699 17.2565 6.59171 16.8623 6.44238C16.4681 6.28709 16.1454 6.06034 15.8945 5.76172L16.7012 5.00879C16.8565 5.22382 17.0625 5.39409 17.3193 5.51953C17.5821 5.64494 17.839 5.70801 18.0898 5.70801C18.2212 5.708 18.3558 5.69294 18.4932 5.66309C18.6304 5.62726 18.7529 5.57073 18.8604 5.49316C18.9738 5.41552 19.0632 5.31952 19.1289 5.20605C19.2006 5.08658 19.2363 4.93984 19.2363 4.7666C19.2363 4.59953 19.1977 4.46193 19.1201 4.35449C19.0425 4.24116 18.9379 4.14594 18.8066 4.06836C18.6753 3.98478 18.5199 3.91323 18.3408 3.85352C18.1617 3.79381 17.9734 3.73071 17.7764 3.66504C17.5852 3.6053 17.3933 3.53383 17.2021 3.4502C17.0111 3.36658 16.8379 3.2555 16.6826 3.11816C16.5334 2.9808 16.411 2.81325 16.3154 2.61621C16.22 2.41325 16.1719 2.16261 16.1719 1.86426C16.1719 1.54168 16.2377 1.26325 16.3691 1.03027C16.5065 0.797336 16.6834 0.606356 16.8984 0.457031C17.1194 0.301826 17.3669 0.187863 17.6416 0.116211C17.9224 0.0385529 18.2064 0 18.4932 0Z" fill="#4A90E2"/>
<path d="M23.8291 2.80566L25.5234 0H26.8984L24.3936 3.77637V6.66699H23.207V3.77637L20.7031 0H22.1523L23.8291 2.80566Z" fill="#4A90E2"/>
</svg>
